<?xml version="1.0" encoding="UTF-8"?>
<svg id="Layer_1" xmlns="http://www.w3.org/2000/svg" version="1.1" viewBox="0 0 1280 507.33">
  <!-- Generator: Adobe Illustrator 30.2.1, SVG Export Plug-In . SVG Version: 2.1.1 Build 1)  -->
  <defs>
    <style>
      .st0 {
        fill: #fff;
      }
    </style>
  </defs>
  <g>
    <path class="st0" d="M1264.42,227.43c-95.68-4-259.46,3.32-496.3,60.89-23.22,5.83-40.66,11.16-60.17,18.41-.96.36-1.89.74-2.85,1.1,35.51-20.91,74.45-40.38,104.52-55.4,2.41-1.2,3.38-4.13,2.18-6.53-1.2-2.4-4.13-3.38-6.53-2.18-32.51,16.25-75.32,37.65-113.23,60.57,10.79-18.56,20.08-35.42,27.23-48.74.06-.1.11-.21.15-.31.74-1.66,2.99-6.69-.15-10.21-1.07-1.2-3.56-3-8.15-1.55-3.86,1.2-7.6,2.99-11.22,4.73-1.47.71-2.95,1.41-4.38,2.06-1.24.54-2.53,1.12-3.86,1.71-15.58,6.93-36.91,16.41-51.63,8.88-8.29-4.9-11.06-17.82-13.29-28.21l-.21-1c-.17-.73-.33-1.51-.5-2.31-1.89-8.84-5.4-25.3-20.96-22.1-11.24,2.57-22.86,12.39-34.11,21.89-1.36,1.15-2.72,2.3-4.1,3.45-1.22,1.04-2.49,2.12-3.8,3.24-7.49,6.41-15.99,13.67-23.6,18.93-8.78,6.07-12.45,6.68-13.6,6.68-.31,0-.43-.05-.43-.04-.04-.04-3.24-3.72,4.46-27.13,3.28-10.38,7.81-22.5,12.61-35.34,4.02-10.76,8.17-21.88,11.56-31.98,3.69-11.25,7.87-23.99,8.96-36.8,1.02-12.07-1.88-20.54-8.64-25.15-7.67-5.23-19.74-4.46-33.06,2.1-19.29,9.05-37.94,24.71-52.06,37.38-30.87,28.19-67.36,65.65-99.7,100.42,13.98-20.94,27.48-42.11,39.03-61.04l2.09-3.52c50.37-84.83,81.58-145.26,70.16-164.44-1.84-3.09-5.61-6.69-13.16-6.45-8.6-.15-21.97,3.72-40.82,11.65C252.61,92.1,50.69,286.41,12.06,332.25c-1.73,2.06-1.47,5.13.59,6.86,2.06,1.74,5.13,1.47,6.86-.58,15.19-18.02,72.51-76.62,152.75-142.73,66.22-54.56,164.79-127.6,258.33-165.74,17.48-7.35,29.98-11.05,37.07-10.91.09,0,.18,0,.27,0,3.46-.13,4.21,1.15,4.54,1.69,1.99,3.34,3.97,16.44-20.57,65.82-15.63,31.46-36.07,65.88-49.6,88.66l-2.06,3.47c-24.92,40.83-58.95,92.19-87.11,128.67-10.28,11.85-18.32,21.45-23.18,27.66-.39.5-.69,1.08-.86,1.7-.59,2.12.33,4.43,2.23,5.55,1.22.72,3.67,1.51,6.43-1.16.91-.84,1.67-1.74,2.41-2.6.5-.58,1.02-1.2,1.64-1.84.06-.06.11-.12.16-.18,5.8-6.64,12.11-14.42,18.73-23,37.2-42.84,103.9-115.19,155.09-161.93,13.6-12.19,31.53-27.27,49.75-35.82,9.85-4.85,18.8-5.93,23.34-2.83,4.54,3.1,4.91,10.56,4.43,16.28-.99,11.67-4.81,23.32-8.5,34.56-3.33,9.91-7.45,20.95-11.44,31.64-4.84,12.96-9.41,25.19-12.75,35.76-7.3,22.18-7.49,33.6-.65,38.18,9.75,6.54,26.63-6.75,49.42-26.24,1.3-1.11,2.56-2.19,3.75-3.2,1.36-1.14,2.74-2.3,4.11-3.46,10.35-8.75,21.06-17.79,29.89-19.81,4.64-.95,6.74,2.33,9.37,14.62.18.84.35,1.65.52,2.37l.2.94c2.5,11.66,5.92,27.62,18.02,34.65.07.04.13.08.2.11,18.88,9.8,42.75-.82,60.18-8.57,1.31-.58,2.58-1.15,3.85-1.7,1.55-.7,3.1-1.44,4.65-2.18,1.52-.73,2.99-1.44,4.45-2.09-8.19,15.16-20.2,36.74-34.54,60.66-.09.06-.19.12-.28.18-1.4.91-2.17,2.41-2.21,3.96-.62,1.02-1.23,2.04-1.86,3.08-35.55,16.62-68.09,36.85-95.56,59.56-22.5,18.62-42.33,36.06-56.96,61-6.5,10.24-14.24,30.55-7.49,41.76,2.13,3.54,6.47,7.54,15.22,7.54.81,0,1.65-.03,2.53-.11.15-.01.29-.03.44-.06,45.68-7.92,105.19-90.79,148.7-162.16,11.32-5.2,22.94-10.03,34.8-14.45,19.16-7.12,36.29-12.36,59.11-18.08,235.7-57.29,398.49-64.58,493.55-60.61,2.69.12,4.96-1.98,5.07-4.66s-1.98-4.96-4.66-5.07ZM633.1,379.34c-43.63,63.01-80.52,98.79-106.7,103.49-6.45.47-7.92-1.97-8.4-2.77-3.83-6.35,1.73-22.67,7.41-31.57.03-.05.06-.1.09-.15,13.83-23.61,33.01-40.46,54.81-58.49,23.29-19.25,50.33-36.7,79.81-51.6-8.52,13.6-17.61,27.52-27.01,41.11Z"/>
    <path class="st0" d="M730.59,230.8c1.27,0,2.54-.49,3.49-1.47,1.76-1.8,5.31-3.74,8.44-4.61,2.59-.72,4.11-3.4,3.39-5.99s-3.4-4.11-5.99-3.39c-4.83,1.34-9.86,4.17-12.82,7.2-1.88,1.93-1.84,5.01.09,6.89.95.92,2.17,1.38,3.4,1.38Z"/>
  </g>
  <g>
    <polygon class="st0" points="52.51 378.62 62.62 395.82 63.91 395.82 74.02 378.5 74.02 399.09 76.63 399.09 76.63 373.35 74.39 373.35 63.32 392.42 52.14 373.35 49.9 373.35 49.9 399.09 52.51 399.09 52.51 378.62"/>
    <path class="st0" d="M103.69,373.35l-11.77,25.74h2.83l3.08-6.88h14.36l3.08,6.88h2.87l-11.77-25.74h-2.68ZM98.82,390.01l6.19-13.84,6.19,13.84h-12.39Z"/>
    <path class="st0" d="M148.7,389.88c1.57-.7,2.78-1.7,3.62-3.02.85-1.31,1.27-2.87,1.27-4.69,0-2.77-.94-4.93-2.81-6.49-1.88-1.56-4.44-2.33-7.7-2.33h-9.63v25.74h2.72v-8.16h6.91c.73,0,1.41-.05,2.06-.13l5.88,8.29h2.98l-6.3-8.84c.34-.11.68-.23,1-.37ZM143,388.61h-6.84v-12.9h6.84c2.57,0,4.53.56,5.86,1.69,1.34,1.13,2,2.72,2,4.78s-.67,3.61-2,4.74c-1.34,1.13-3.29,1.69-5.86,1.69Z"/>
    <rect class="st0" x="171.05" y="373.35" width="2.72" height="25.74"/>
    <polygon class="st0" points="211.38 396.73 195.91 396.73 195.91 387.17 209.22 387.17 209.22 384.86 195.91 384.86 195.91 375.7 210.83 375.7 210.83 373.35 193.18 373.35 193.18 399.09 211.38 399.09 211.38 396.73"/>
    <rect class="st0" x="227.19" y="385.01" width="9.63" height="2.28"/>
    <path class="st0" d="M252.1,398.35c1.26.64,2.62.96,4.06.96,2.48,0,4.34-.67,5.61-2.02,1.26-1.35,1.89-3.38,1.89-6.1v-17.83h-12.1v2.35h9.41v15.59c0,3.78-1.59,5.66-4.78,5.66-1.13,0-2.16-.27-3.09-.81-.93-.54-1.75-1.32-2.46-2.35l-1.58,1.84c.76,1.18,1.77,2.08,3.03,2.72Z"/>
    <path class="st0" d="M289.96,373.35l-11.77,25.74h2.83l3.08-6.88h14.36l3.08,6.88h2.87l-11.77-25.74h-2.68ZM285.09,390.01l6.19-13.84,6.19,13.84h-12.39Z"/>
    <polygon class="st0" points="338.97 399.09 341.21 399.09 341.21 373.35 338.53 373.35 338.53 394.22 321.94 373.35 319.7 373.35 319.7 399.09 322.42 399.09 322.42 378.22 338.97 399.09"/>
    <polygon class="st0" points="368.79 395.75 358.93 373.35 355.99 373.35 367.39 399.09 370.07 399.09 381.47 373.35 378.71 373.35 368.79 395.75"/>
    <rect class="st0" x="396.22" y="373.35" width="2.72" height="25.74"/>
    <polygon class="st0" points="436.55 396.73 421.07 396.73 421.07 387.17 434.38 387.17 434.38 384.86 421.07 384.86 421.07 375.7 436 375.7 436 373.35 418.35 373.35 418.35 399.09 436.55 399.09 436.55 396.73"/>
    <path class="st0" d="M456.7,390.93h6.91c.73,0,1.41-.05,2.06-.13l5.88,8.29h2.98l-6.3-8.84c.34-.11.68-.23,1-.37,1.57-.7,2.78-1.7,3.62-3.02.85-1.31,1.27-2.87,1.27-4.69,0-2.77-.94-4.93-2.81-6.49-1.88-1.56-4.44-2.33-7.7-2.33h-9.63v25.74h2.72v-8.16ZM469.4,377.39c1.34,1.13,2,2.72,2,4.78s-.67,3.61-2,4.74c-1.34,1.13-3.29,1.69-5.86,1.69h-6.84v-12.9h6.84c2.57,0,4.53.56,5.86,1.69Z"/>
    <polygon class="st0" points="96.53 431.73 89.74 431.73 56.9 465.5 56.9 431.73 50.99 431.73 50.99 487.66 56.9 487.66 56.9 472.95 68.35 461.35 91.18 487.66 98.21 487.66 72.35 457.08 96.53 431.73"/>
    <rect class="st0" x="131.76" y="431.73" width="5.91" height="55.93"/>
    <polygon class="st0" points="171.07 436.84 190.73 436.84 190.73 487.66 196.64 487.66 196.64 436.84 216.3 436.84 216.3 431.73 171.07 431.73 171.07 436.84"/>
    <path class="st0" d="M256.57,443.11c2.13-2.1,4.63-3.73,7.51-4.87,2.88-1.14,5.99-1.72,9.35-1.72s6.18.52,8.95,1.56c2.77,1.04,5.3,2.73,7.59,5.07l3.76-3.75c-2.45-2.72-5.46-4.76-9.03-6.11-3.57-1.36-7.38-2.04-11.43-2.04s-8.1.71-11.67,2.12c-3.57,1.41-6.67,3.39-9.31,5.95-2.64,2.56-4.69,5.57-6.15,9.03-1.47,3.46-2.2,7.24-2.2,11.35s.73,7.88,2.2,11.35c1.46,3.46,3.5,6.47,6.11,9.03,2.61,2.56,5.7,4.54,9.27,5.95,3.57,1.41,7.46,2.12,11.67,2.12s7.94-.69,11.51-2.08c3.57-1.38,6.58-3.44,9.03-6.15l-3.76-3.75c-2.29,2.34-4.82,4.05-7.59,5.11-2.77,1.07-5.75,1.6-8.95,1.6-3.36,0-6.47-.57-9.35-1.72-2.88-1.14-5.38-2.77-7.51-4.87-2.13-2.1-3.79-4.55-4.99-7.35s-1.8-5.87-1.8-9.23.6-6.43,1.8-9.23c1.2-2.8,2.86-5.25,4.99-7.35Z"/>
    <polygon class="st0" points="370.43 456.66 335.43 456.66 335.43 431.73 329.52 431.73 329.52 487.66 335.43 487.66 335.43 461.85 370.43 461.85 370.43 487.66 376.26 487.66 376.26 431.73 370.43 431.73 370.43 456.66"/>
    <path class="st0" d="M463.87,439.32c-2.64-2.56-5.74-4.54-9.31-5.95-3.57-1.41-7.46-2.12-11.67-2.12s-8.18.71-11.75,2.12c-3.57,1.41-6.67,3.41-9.31,5.99-2.64,2.58-4.69,5.59-6.15,9.03-1.47,3.44-2.2,7.2-2.2,11.31s.73,7.87,2.2,11.31c1.46,3.44,3.52,6.45,6.15,9.03,2.64,2.58,5.75,4.58,9.35,5.99,3.6,1.41,7.5,2.12,11.71,2.12s8.1-.71,11.67-2.12c3.57-1.41,6.67-3.4,9.31-5.95,2.64-2.56,4.69-5.57,6.15-9.03,1.46-3.46,2.2-7.24,2.2-11.35s-.73-7.88-2.2-11.35c-1.47-3.46-3.52-6.47-6.15-9.03ZM464.55,468.92c-1.17,2.8-2.81,5.25-4.91,7.35-2.1,2.11-4.58,3.73-7.43,4.87-2.85,1.15-5.95,1.72-9.31,1.72s-6.47-.57-9.35-1.72c-2.88-1.14-5.38-2.77-7.51-4.87-2.13-2.1-3.78-4.57-4.95-7.39-1.17-2.82-1.76-5.88-1.76-9.19s.59-6.43,1.76-9.23c1.17-2.8,2.82-5.25,4.95-7.35,2.13-2.1,4.63-3.73,7.51-4.87,2.88-1.14,5.99-1.72,9.35-1.72s6.46.57,9.31,1.72c2.85,1.15,5.33,2.77,7.43,4.87,2.1,2.11,3.74,4.56,4.91,7.35,1.17,2.8,1.76,5.87,1.76,9.23s-.59,6.43-1.76,9.23Z"/>
  </g>
</svg>